<svg width="60" height="60" viewBox="0 0 60 60" fill="none" xmlns="http://www.w3.org/2000/svg">
<path d="M33.084 0.003691C35.2731 -0.00470924 37.4622 0.017292 39.6507 0.0696878L40.2327 0.0906867C40.9046 0.114685 41.5676 0.144684 42.3686 0.180682C45.5604 0.330674 47.7383 0.834649 49.6492 1.57561C51.6291 2.33757 53.297 3.36952 54.9649 5.03743C56.49 6.53617 57.6702 8.3491 58.4237 10.3502C59.1647 12.2611 59.6687 14.4419 59.8187 17.6338C59.8547 18.4317 59.8847 19.0977 59.9087 19.7697L59.9267 20.3516C59.98 22.5391 60.003 24.7272 59.9957 26.9153L59.9987 29.1532V33.083C60.006 35.2721 59.983 37.4612 59.9297 39.6497L59.9117 40.2316C59.8877 40.9036 59.8577 41.5666 59.8217 42.3675C59.6717 45.5594 59.1617 47.7372 58.4237 49.6481C57.6727 51.6513 56.4921 53.4657 54.9649 54.9639C53.4649 56.4888 51.651 57.669 49.6492 58.4227C47.7383 59.1637 45.5604 59.6676 42.3686 59.8176C41.5676 59.8536 40.9046 59.8836 40.2327 59.9076L39.6507 59.9256C37.4622 59.9789 35.2731 60.0019 33.084 59.9946L30.8461 59.9976H26.9193C24.7302 60.005 22.5411 59.982 20.3527 59.9286L19.7707 59.9106C19.0586 59.8848 18.3466 59.8548 17.6348 59.8206C14.443 59.6706 12.2651 59.1607 10.3512 58.4227C8.34935 57.6708 6.53611 56.4903 5.03847 54.9639C3.51169 53.4648 2.33028 51.6507 1.57665 49.6481C0.835688 47.7372 0.331714 45.5594 0.181721 42.3675C0.148312 41.6557 0.118313 40.9437 0.0917262 40.2316L0.0767274 39.6497C0.0214209 37.4612 -0.00358046 35.2721 0.00173091 33.083V26.9153C-0.00664156 24.7272 0.0153597 22.5391 0.0677278 20.3516L0.0887266 19.7697C0.112725 19.0977 0.142724 18.4317 0.178722 17.6338C0.328714 14.4389 0.832688 12.2641 1.57365 10.3502C2.32773 8.34812 3.51144 6.53569 5.04147 5.04043C6.53808 3.51277 8.35019 2.33029 10.3512 1.57561C12.2651 0.834649 14.44 0.330674 17.6348 0.180682L19.7707 0.0906867L20.3527 0.0756878C22.5401 0.0204091 24.7282 -0.00459232 26.9163 0.000691368L33.084 0.003691ZM30.0002 15.0029C28.0128 14.9748 26.0397 15.342 24.1954 16.0831C22.3512 16.8242 20.6726 17.9244 19.2573 19.3199C17.8419 20.7153 16.7181 22.3782 15.951 24.2117C15.1839 26.0453 14.7888 28.0131 14.7888 30.0007C14.7888 31.9882 15.1839 33.956 15.951 35.7896C16.7181 37.6232 17.8419 39.286 19.2573 40.6814C20.6726 42.0769 22.3512 43.1771 24.1954 43.9182C26.0397 44.6593 28.0128 45.0265 30.0002 44.9984C33.9782 44.9984 37.7933 43.4181 40.6062 40.6052C43.4191 37.7923 44.9994 33.9772 44.9994 29.9992C44.9994 26.0211 43.4191 22.206 40.6062 19.3931C37.7933 16.5802 33.9782 15.0029 30.0002 15.0029ZM30.0002 21.0026C31.1957 20.9806 32.3835 21.197 33.4944 21.6392C34.6053 22.0814 35.6169 22.7406 36.4702 23.5781C37.3235 24.4157 38.0013 25.4149 38.4641 26.5174C38.9269 27.6198 39.1653 28.8035 39.1655 29.9991C39.1657 31.1948 38.9277 32.3785 38.4652 33.4811C38.0028 34.5838 37.3253 35.5832 36.4723 36.421C35.6193 37.2589 34.6079 37.9184 33.4972 38.3609C32.3864 38.8035 31.1987 39.0203 30.0032 38.9987C27.6164 38.9987 25.3273 38.0505 23.6396 36.3628C21.9518 34.675 21.0037 32.386 21.0037 29.9992C21.0037 27.6123 21.9518 25.3233 23.6396 23.6355C25.3273 21.9478 27.6164 20.9996 30.0032 20.9996L30.0002 21.0026ZM45.7494 10.5032C44.7816 10.5419 43.8664 10.9536 43.1953 11.652C42.5243 12.3504 42.1495 13.2814 42.1495 14.25C42.1495 15.2185 42.5243 16.1495 43.1953 16.8479C43.8664 17.5463 44.7816 17.958 45.7494 17.9968C46.7439 17.9968 47.6977 17.6017 48.4009 16.8985C49.1041 16.1952 49.4992 15.2415 49.4992 14.247C49.4992 13.2524 49.1041 12.2987 48.4009 11.5954C47.6977 10.8922 46.7439 10.4972 45.7494 10.4972V10.5032Z" fill="#058789"/>
</svg>
