<svg width="790" height="237" viewBox="0 0 790 237" fill="none" xmlns="http://www.w3.org/2000/svg">
<path d="M271.28 122.214C270.622 123.716 269.964 125.217 269.305 126.697C267.023 126.903 264.411 127.191 261.923 127.52C255.425 128.425 247.26 131.036 231.035 138.604C214.789 146.172 200.991 163.734 190.03 179.671C179.069 195.608 168.252 231.144 159.451 232.501C150.649 233.837 143.493 219.792 140.1 214.116C136.727 208.441 128.337 190.755 124.533 181.83C120.749 172.926 109.562 141.133 103.619 120.24C97.655 99.3468 95.3107 79.1732 94.776 53.0565C94.2208 26.9398 108.657 12.5242 120.934 7.67107C121.098 7.58881 121.263 7.52712 121.427 7.48599C127.782 5.26504 138.866 6.95132 151.842 11.969C164.654 16.925 179.295 25.089 193.053 35.947C193.053 35.947 169.322 25.1302 152.829 25.5415C136.316 25.9527 124.8 35.1244 118.857 47.0106C112.893 58.8968 111.557 83.4917 113.716 103.48C115.875 123.469 124.533 154.274 129.962 171.034C135.37 187.773 144.974 203.053 151.061 207.104C157.148 211.155 160.808 205.068 168.746 187.958C176.684 170.849 197.433 151.395 207.9 142.923C217.566 135.088 248.186 124.106 271.28 122.214Z" fill="#058789"/>
<path fill-rule="evenodd" clip-rule="evenodd" d="M170.72 13.7788C150.341 2.26274 129.057 0.453077 120.214 4.23691C120.214 4.23691 131.977 -2.69326 153.22 1.17283C161.892 2.8121 175.011 9.53029 185.742 15.0258C192.646 18.5615 198.562 21.591 201.669 22.4363C209.607 24.5956 224.311 23.3206 230.089 21.3464C231.634 20.8168 233.363 20.1183 235.483 19.2615C241.266 16.9247 249.965 13.4096 265.81 8.92558C287.464 2.79741 303.154 10.7147 309.283 14.6836C315.431 18.6525 318.845 23.5057 321.827 35.9471C321.827 35.9471 321.95 36.1491 321.827 39.4835H310.463H309.946H298.101C296.864 31.0478 293.706 28.1859 286.744 24.4105C273.164 17.0568 251.653 23.062 232.462 28.4198C230.991 28.8304 229.534 29.2372 228.095 29.6339C208.38 35.0946 191.919 25.7772 172.167 14.5974L170.72 13.7788ZM307.972 106.605H284.281C274.681 131.905 263.158 155.893 254.252 168.69C242.346 185.799 238.562 192.832 238.562 192.832C274.106 156.446 295.861 133.136 307.972 106.605Z" fill="#058789"/>
<mask id="mask0_19_262" style="mask-type:luminance" maskUnits="userSpaceOnUse" x="303" y="133" width="271" height="41">
<path d="M303.015 133.483H573.827V173.398H303.015V133.483Z" fill="white"/>
</mask>
<g mask="url(#mask0_19_262)">
<path d="M306.079 172.74C322.695 164.247 342.067 162.273 360.493 161.841C380.317 161.327 400.1 162.623 419.821 164.412C439.768 166.242 459.654 168.545 479.663 169.944C489.596 170.602 499.61 170.992 509.605 171.054C518.982 171.116 528.483 171.178 537.86 170.046C547.279 168.936 556.718 166.304 563.956 159.867C570.29 154.233 574.855 145.616 573.107 137.061C572.367 133.483 566.732 134.326 566.732 137.904C566.773 145.513 563.792 151.929 557.849 156.741C551.186 162.17 542.261 164.062 533.953 165.07C515.075 167.25 495.868 166.53 476.949 165.234C438.514 162.561 400.223 156.351 361.624 157.687C341.964 158.304 322.079 160.546 304.948 170.828C303.715 171.568 304.784 173.398 306.079 172.74Z" fill="black"/>
</g>
<path d="M313.544 160.32C330.386 154.232 347.784 152.772 365.572 152.67C366.538 152.67 366.888 151.045 365.798 150.942C348.01 148.31 329.482 152.505 313.153 159.6C312.804 159.764 313.092 160.484 313.544 160.32Z" fill="black"/>
<mask id="mask1_19_262" style="mask-type:luminance" maskUnits="userSpaceOnUse" x="552" y="142" width="32" height="32">
<path d="M552.769 142.141H583.903V173.398H552.769V142.141Z" fill="white"/>
</mask>
<g mask="url(#mask1_19_262)">
<path d="M557.355 170.108C563.853 169.203 569.838 166.139 574.362 161.492C576.665 159.147 578.639 156.474 579.996 153.513C581.127 151.148 583.225 146.973 581.539 144.567C580.737 143.436 579.379 143.272 578.372 144.176C576.439 145.781 576.727 149.482 575.925 151.826C575.04 154.52 573.724 157.029 572.1 159.312C568.419 164.288 563.175 167.928 557.17 169.553C556.779 169.615 556.944 170.17 557.355 170.108Z" fill="black"/>
</g>
<path d="M309.945 48.5587C302.727 47.8341 295.2 50.9043 293.596 58.6656C291.211 69.7068 300.897 80.176 314.325 81.0913C311.487 88.2996 306.573 94.7642 299.19 94.5544C287.982 94.2112 288.599 79.4514 292.98 71.5566C293.823 69.7831 290.059 67.6282 288.743 68.8487C283.684 75.9044 282.841 86.6597 286.522 92.6284C288.908 96.4042 292.98 98.7688 299.19 98.826C309.637 98.9023 317.102 90.4926 320.783 81.0913C324.772 80.5955 328.761 79.2416 332.607 77.0295C333.759 76.4002 333.759 73.33 332.689 73.9784C329.296 75.8282 325.389 77.0295 322.016 77.5444C324.772 68.1431 326.684 50.1796 309.945 48.5587ZM309.575 53.04C319.713 53.9554 317.718 70.565 315.641 77.3156C304.578 76.324 297.812 67.571 299.807 59.2949C301.041 54.2414 304.804 52.5442 309.575 53.04Z" fill="#058789"/>
<path d="M360.863 49.6758C358.868 54.0764 355.023 64.459 353.563 69.0883C348.73 67.7357 339.579 68.8787 333.821 76.4228C326.767 85.7385 326.767 99.0549 336.823 98.8263C342.437 98.6929 346.571 94.1398 348.874 89.5867C348.031 94.8447 350.416 98.3309 354.344 98.2547C361.089 98.1214 366.477 90.1582 369.767 82.9571C370.158 82.1189 367.773 80.8997 367.464 81.6807C364.77 87.9484 360.102 94.216 356.709 94.216C350.19 94.2732 362.405 61.1252 366.621 51.0855C367.156 49.3138 361.562 48.5327 360.863 49.6758ZM352.329 73.0127C351.424 76.499 350.108 80.6901 348.812 83.681C345.275 91.93 339.661 96.4068 336.741 93.9303C333.985 91.8537 335.446 84.3859 338.283 79.8328C342.047 73.7938 347.887 71.7935 352.329 73.0127Z" fill="#058789"/>
<path d="M385.123 69.377C376.218 69.649 368.301 76.4836 366.533 85.5482C364.538 95.3742 370.296 98.7643 376.753 98.7643C381.75 98.7643 385.822 96.9333 389.05 93.8151C394.726 95.1022 401.101 93.67 405.872 83.7897C406.325 82.847 403.877 81.8317 403.487 82.5025C399.867 90.4974 395.343 91.7846 391.415 91.4402C397.646 82.3756 398.346 69.0326 385.123 69.377ZM384.506 73.3654C391.354 73.021 390.264 81.5598 386.747 88.195C384.896 87.5243 382.737 89.8267 384.362 91.7846C382.511 93.6157 380.126 94.8303 377.761 94.8303C372.764 94.8303 372.311 90.0986 373.072 85.7657C374.059 80.3995 378.974 73.6374 384.506 73.3654Z" fill="#058789"/>
<path d="M424.526 69.3777C419.302 69.3052 413.853 74.3825 411.077 77.7734L413.01 71.4086C412.927 69.5047 407.848 68.9607 407.005 70.5926C404.023 81.0192 401.864 87.6559 399.252 96.7406C399.026 98.826 405.175 98.699 405.709 97.4116C407.231 91.3914 407.786 89.0885 409.925 82.7056C413.236 78.1723 418.542 73.8385 421.832 73.8385C424.752 73.8385 424.217 76.7579 423.6 78.8614C422.593 82.5061 420.372 90.1583 420.063 92.5338C419.446 96.4686 421.133 98.826 425.821 98.826C432.669 98.7716 438.201 90.0314 441.265 83.7936C441.718 82.8507 439.353 81.7627 438.962 82.5061C435.898 89.2154 430.901 94.9636 427.59 94.9636C425.451 94.9636 426.212 91.9172 426.829 89.4874C427.672 86.0965 429.276 82.5061 430.119 79.1878C431.662 73.639 430.366 69.4321 424.526 69.3777Z" fill="#058789"/>
<path d="M446.328 98.8261C453.855 98.6931 459.613 92.3107 463.684 83.1549C464.157 82.1672 461.772 80.9515 461.381 81.7303C458.77 87.7708 453.094 94.7231 447.706 94.6471C443.49 94.5711 443.326 89.5373 444.95 82.5851C445.629 79.5268 446.781 75.6328 448.014 71.7387H456.014C456.919 71.5108 457.782 68.6805 456.466 67.9776H449.084C451.017 62.374 452.929 56.9793 454.616 52.8573C454.924 51.2997 449.557 50.312 448.796 51.6606C447.089 55.6307 444.642 61.9371 442.647 67.9776H439.336C438.267 68.4715 437.568 71.0169 438.946 71.7387H441.496C438.185 83.2309 433.804 98.978 446.328 98.8261Z" fill="#058789"/>
<path d="M479.039 69.377C470.135 69.649 462.217 76.4836 460.449 85.5482C458.454 95.3742 464.212 98.7643 470.669 98.7643C475.666 98.7643 479.738 96.9333 482.967 93.8151C488.642 95.1022 495.017 93.67 499.788 83.7897C500.241 82.847 497.794 81.8317 497.403 82.5025C493.784 90.4974 489.259 91.7846 485.332 91.4402C491.563 82.3756 492.262 69.0326 479.039 69.377ZM478.422 73.3654C485.27 73.021 484.18 81.5598 480.664 88.195C478.813 87.5243 476.653 89.8267 478.278 91.7846C476.427 93.6157 474.042 94.8303 471.677 94.8303C466.68 94.8303 466.227 90.0986 466.988 85.7657C467.975 80.3995 472.89 73.6374 478.422 73.3654Z" fill="#058789"/>
<path d="M511.285 50.6518C506.144 54.1394 501.702 63.8209 498.926 74.1314C495.554 86.5954 494.772 97.7063 504.314 98.7735C514.144 99.9742 519.12 91.7982 523.439 83.0315C523.974 82.0405 521.424 80.9732 521.136 81.6784C518.75 86.7288 513.301 95.4193 506.535 94.7141C501.846 94.2758 501.702 88.1581 503.389 80.8208C512.519 76.3421 518.442 69.5193 521.362 62.2582C525.742 51.4332 518.216 45.8873 511.285 50.6518ZM516.056 53.4914C518.359 53.6439 517.434 58.4084 514.514 64.4499C512.293 69.0047 508.674 73.2928 504.376 76.4183C505.836 71.2155 507.913 66.0317 509.147 63.0396C511.532 57.3412 513.835 53.358 516.056 53.4914Z" fill="#058789"/>
<path d="M538.86 69.377C529.955 69.649 522.038 76.4836 520.269 85.5482C518.275 95.3742 524.033 98.7643 530.49 98.7643C535.487 98.7643 539.559 96.9333 542.787 93.8151C548.463 95.1022 554.838 93.67 559.609 83.7897C560.061 82.847 557.614 81.8317 557.223 82.5025C553.604 90.4974 549.08 91.7846 545.152 91.4402C551.383 82.3756 552.082 69.0326 538.86 69.377ZM538.243 73.3654C545.09 73.021 544.001 81.5598 540.484 88.195C538.633 87.5243 536.474 89.8267 538.099 91.7846C536.248 93.6157 533.862 94.8303 531.497 94.8303C526.5 94.8303 526.048 90.0986 526.809 85.7657C527.796 80.3995 532.711 73.6374 538.243 73.3654Z" fill="#058789"/>
<path d="M575.034 69.5133C569.502 70.0098 563.662 73.2179 559.673 79.0039C552.989 88.4181 553.215 100.62 563.127 100.334C569.05 100.181 572.957 94.9106 575.425 90.7668C574.109 94.8342 572.566 99.3217 571.805 101.69C564.731 104.535 556.608 107.953 555.827 114.235C555.375 118.589 558.356 120.938 562.819 120.728C569.112 120.575 573.122 117.367 576.803 103.752C585.625 100.047 590.704 94.7006 595.537 84.4844C595.927 83.6441 593.542 82.4984 593.234 83.2049C589.552 91.6261 584.165 97.2594 578.036 99.5509C580.792 90.4804 582.334 84.6371 584.165 78.221C584.329 76.8652 579.497 75.643 578.797 76.9988C577.79 80.2069 576.576 83.3577 575.178 85.9165C571.106 93.6312 565.657 97.8323 562.901 95.4071C560.68 93.3448 561.523 87.5588 564.279 82.6321C567.199 77.5717 571.579 74.0008 576.33 73.6571C579.497 73.2943 582.951 74.1536 585.933 76.3687C587.023 77.3617 589.943 74.44 589.244 73.5043C585.255 70.1626 579.805 69.0168 575.034 69.5133ZM569.358 110.302C566.582 118.723 559.22 117.52 562.14 112.46C563.354 110.092 567.117 107.609 570.736 105.891L569.358 110.302Z" fill="#058789"/>
<path d="M601.904 64.1283C604.063 64.1283 605.832 62.8517 606.058 60.7491C606.202 58.7217 604.742 57.4639 602.685 57.3888C600.608 57.3888 598.84 58.6466 598.613 60.7491C598.367 62.7954 599.909 64.1283 601.904 64.1283ZM596.064 98.7643C603.528 98.7643 609.286 89.7908 612.35 83.3329C612.823 82.2817 610.356 81.1553 609.965 82.0001C607.353 88.0262 601.986 94.6906 598.079 94.822C596.002 94.8971 596.372 92.7194 597.071 89.8471C598.449 84.5156 599.601 81.0239 602.911 70.2858C602.829 68.8966 597.832 67.9016 596.989 69.5912C594.069 79.1278 592.547 83.9712 590.84 90.4854C589.545 95.7418 590.778 98.8206 596.064 98.7643Z" fill="#058789"/>
<path d="M626.638 69.6502C617.652 70.9917 609.735 79.3852 608.13 87.5249C606.753 94.3594 609.899 98.8915 615.883 98.7646C621.724 98.6196 625.034 94.3594 627.934 90.0992C626.782 95.1752 629.086 98.2752 632.561 98.2752C639.697 98.2752 645.229 91.0419 648.91 83.7904C649.362 82.8478 646.833 81.8326 646.524 82.5758C643.542 89.2109 638.154 94.4863 635.008 94.4863C633.157 94.4863 632.849 92.8729 633.466 89.7547C634.247 85.9659 636.016 80.7448 636.921 77.7718C637.003 76.4121 632.17 75.1975 631.327 76.7566C628.489 87.5249 619.503 97.5319 615.657 94.0875C613.58 92.184 614.197 86.6366 617.035 82.032C619.647 77.5723 623.801 74.1823 628.098 73.4934C631.409 72.9677 635.543 73.9104 638.771 76.0677C639.841 76.8291 642.699 74.1098 641.918 73.2396C637.846 69.5776 631.409 68.9069 626.638 69.6502Z" fill="#058789"/>
<path d="M356.737 146.081H351.308V120.088H366.197V124.612H356.737V131.275H365.539V135.799H356.737V146.081Z" fill="black"/>
<path d="M383.483 146.081L382.414 143.366H382.332C381.386 144.518 380.44 145.32 379.453 145.752C378.507 146.184 377.252 146.41 375.669 146.41C373.797 146.41 372.317 145.896 371.227 144.847C370.116 143.757 369.582 142.194 369.582 140.158C369.582 138.02 370.281 136.457 371.72 135.47C373.201 134.483 375.443 133.948 378.466 133.825L381.92 133.66V132.838C381.92 130.822 380.872 129.794 378.795 129.794C377.191 129.794 375.34 130.288 373.201 131.275L371.391 127.573C373.695 126.38 376.245 125.763 379.041 125.763C381.674 125.763 383.689 126.38 385.128 127.573C386.547 128.725 387.267 130.493 387.267 132.838V146.081H383.483ZM381.92 136.868L379.782 136.95C378.178 137.012 377.006 137.321 376.245 137.855C375.463 138.349 375.093 139.13 375.093 140.158C375.093 141.701 375.957 142.462 377.725 142.462C378.98 142.462 379.987 142.112 380.769 141.392C381.53 140.693 381.92 139.727 381.92 138.513V136.868Z" fill="black"/>
<path d="M404.014 125.846C404.714 125.846 405.331 125.907 405.824 126.01L405.413 131.028C404.96 130.925 404.426 130.863 403.768 130.863C402.061 130.863 400.724 131.336 399.737 132.262C398.791 133.146 398.339 134.38 398.339 135.963V146.081H392.91V126.175H397.023L397.763 129.547H398.092C398.688 128.396 399.511 127.491 400.56 126.833C401.588 126.175 402.739 125.846 404.014 125.846Z" fill="black"/>
<path d="M409.212 121.075C409.212 119.265 410.199 118.36 412.173 118.36C414.147 118.36 415.134 119.265 415.134 121.075C415.134 121.897 414.887 122.555 414.394 123.049C413.9 123.501 413.16 123.707 412.173 123.707C410.199 123.707 409.212 122.843 409.212 121.075ZM414.887 146.081H409.458V126.175H414.887V146.081Z" fill="black"/>
<path d="M433.165 146.081L432.096 143.366H432.014C431.068 144.518 430.122 145.32 429.135 145.752C428.189 146.184 426.934 146.41 425.351 146.41C423.479 146.41 421.999 145.896 420.909 144.847C419.798 143.757 419.264 142.194 419.264 140.158C419.264 138.02 419.963 136.457 421.402 135.47C422.883 134.483 425.125 133.948 428.147 133.825L431.602 133.66V132.838C431.602 130.822 430.553 129.794 428.476 129.794C426.872 129.794 425.022 130.288 422.883 131.275L421.073 127.573C423.377 126.38 425.927 125.763 428.723 125.763C431.355 125.763 433.371 126.38 434.81 127.573C436.229 128.725 436.949 130.493 436.949 132.838V146.081H433.165ZM431.602 136.868L429.464 136.95C427.86 137.012 426.687 137.321 425.927 137.855C425.145 138.349 424.775 139.13 424.775 140.158C424.775 141.701 425.639 142.462 427.407 142.462C428.662 142.462 429.669 142.112 430.451 141.392C431.212 140.693 431.602 139.727 431.602 138.513V136.868Z" fill="black"/>
<path d="M452.469 146.081V120.088H457.98V141.557H468.509V146.081H452.469Z" fill="black"/>
<path d="M472.399 121.075C472.399 119.265 473.387 118.36 475.361 118.36C477.335 118.36 478.322 119.265 478.322 121.075C478.322 121.897 478.075 122.555 477.582 123.049C477.088 123.501 476.348 123.707 475.361 123.707C473.387 123.707 472.399 122.843 472.399 121.075ZM478.075 146.081H472.646V126.175H478.075V146.081Z" fill="black"/>
<path d="M501.535 146.081H496.106V134.483C496.106 133.064 495.859 131.994 495.366 131.275C494.913 130.514 494.173 130.123 493.145 130.123C491.767 130.123 490.759 130.658 490.101 131.686C489.484 132.735 489.197 134.4 489.197 136.704V146.081H483.768V126.175H487.88L488.621 128.725H488.95C489.443 127.799 490.184 127.08 491.171 126.586C492.199 126.092 493.392 125.846 494.708 125.846C497.669 125.846 499.664 126.812 500.713 128.725H501.206C501.741 127.799 502.543 127.08 503.592 126.586C504.62 126.092 505.813 125.846 507.129 125.846C509.37 125.846 511.077 126.422 512.229 127.573C513.38 128.725 513.956 130.576 513.956 133.084V146.081H508.527V134.483C508.527 133.064 508.28 131.994 507.787 131.275C507.293 130.514 506.512 130.123 505.483 130.123C504.167 130.123 503.18 130.617 502.522 131.604C501.864 132.55 501.535 134.051 501.535 136.128V146.081Z" fill="black"/>
<path d="M532.138 146.081L531.068 143.366H530.986C530.04 144.518 529.094 145.32 528.107 145.752C527.161 146.184 525.907 146.41 524.323 146.41C522.452 146.41 520.971 145.896 519.881 144.847C518.771 143.757 518.236 142.194 518.236 140.158C518.236 138.02 518.935 136.457 520.375 135.47C521.855 134.483 524.097 133.948 527.12 133.825L530.575 133.66V132.838C530.575 130.822 529.526 129.794 527.449 129.794C525.845 129.794 523.994 130.288 521.855 131.275L520.046 127.573C522.349 126.38 524.899 125.763 527.696 125.763C530.328 125.763 532.343 126.38 533.783 127.573C535.202 128.725 535.921 130.493 535.921 132.838V146.081H532.138ZM530.575 136.868L528.436 136.95C526.832 137.012 525.66 137.321 524.899 137.855C524.117 138.349 523.747 139.13 523.747 140.158C523.747 141.701 524.611 142.462 526.38 142.462C527.634 142.462 528.642 142.112 529.423 141.392C530.184 140.693 530.575 139.727 530.575 138.513V136.868Z" fill="black"/>
</svg>
