<svg width="60" height="60" viewBox="0 0 60 60" fill="none" xmlns="http://www.w3.org/2000/svg">
<path d="M59.97 13.6417C59.945 12.3545 59.8418 11.0701 59.661 9.79549C59.4455 8.66174 59.0792 7.56193 58.572 6.52533C57.4616 4.33312 55.6814 2.55185 53.49 1.44007C52.4601 0.935184 51.3675 0.569945 50.241 0.354018C48.9567 0.169456 47.6622 0.0642513 46.365 0.039002C45.816 0.0180009 45.105 0.00900051 44.775 0.00900051L15.231 0C14.901 0 14.19 0.00900042 13.641 0.0300015C12.3539 0.0548025 11.0695 0.157999 9.795 0.339017C8.66131 0.554547 7.56155 0.920816 6.525 1.42807C4.33303 2.53873 2.5519 4.3189 1.44 6.51033C0.93527 7.54032 0.570055 8.63299 0.354 9.75949C0.16861 11.0438 0.0624093 12.3383 0.0360003 13.6357C0.0180003 14.1847 0.00600028 14.8957 0.00600028 15.2258L0 44.7712C0 45.1013 0.00899997 45.8123 0.03 46.3613C0.0547998 47.6485 0.157991 48.9329 0.339 50.2075C0.554554 51.3413 0.920803 52.4411 1.428 53.4777C2.5386 55.6698 4.31868 57.451 6.51 58.5629C7.53997 59.0676 8.63258 59.4328 9.759 59.649C11.0433 59.8336 12.3378 59.9388 13.635 59.964C14.184 59.985 14.895 59.994 15.225 59.994L44.769 60C45.099 60 45.81 59.991 46.359 59.97C47.6461 59.9451 48.9305 59.8419 50.205 59.661C51.3387 59.4453 52.4384 59.0791 53.475 58.5719C55.6681 57.4618 57.4503 55.6816 58.563 53.4897C59.0678 52.4597 59.433 51.367 59.649 50.2405C59.8345 48.9562 59.9407 47.6617 59.967 46.3643C59.985 45.8153 59.997 45.1043 59.997 44.7742L60 15.2318C60 14.9017 59.991 14.1907 59.97 13.6417ZM30.651 50.8735H30.642C27.071 50.8728 23.557 49.9775 20.421 48.2694L9.081 51.2426L12.117 40.163C9.76636 36.0838 8.82712 31.3429 9.4449 26.6755C10.0627 22.0081 12.203 17.6749 15.5339 14.3477C18.8649 11.0205 23.2004 8.88531 27.8683 8.27305C32.5362 7.66079 37.2757 8.60572 41.352 10.9613C45.4282 13.3169 48.6135 16.9516 50.4139 21.3018C52.2144 25.6521 52.5294 30.4748 51.3102 35.0223C50.0909 39.5698 47.4055 43.588 43.6704 46.4539C39.9352 49.3198 35.3589 50.8733 30.651 50.8735Z" fill="#058789"/>
<path d="M30.6607 11.7034C27.484 11.7025 24.365 12.5527 21.6281 14.1656C18.8912 15.7785 16.6364 18.0953 15.0982 20.8749C13.5599 23.6545 12.7944 26.7955 12.8812 29.9712C12.9679 33.1469 13.9039 36.2414 15.5917 38.9328L16.0147 39.6048L14.2177 46.1632L20.9467 44.3991L21.5947 44.7831C24.334 46.4055 27.4591 47.2614 30.6427 47.2612H30.6517C35.3671 47.262 39.8897 45.3895 43.2246 42.0556C46.5595 38.7217 48.4334 34.1995 48.4342 29.4838C48.435 24.7682 46.5626 20.2453 43.2288 16.9103C39.8951 13.5753 35.3731 11.7012 30.6577 11.7004L30.6607 11.7034ZM41.1127 37.1147C40.7195 37.7642 40.1961 38.3252 39.5755 38.7625C38.9549 39.1998 38.2506 39.504 37.5067 39.6558C36.3836 39.8485 35.2311 39.7766 34.1407 39.4458C33.1066 39.1236 32.0902 38.747 31.0957 38.3178C27.4049 36.4655 24.259 33.6854 21.9667 30.2504C20.7162 28.6602 19.9572 26.7395 19.7827 24.7241C19.7683 23.8922 19.9273 23.0664 20.2496 22.2994C20.5719 21.5323 21.0504 20.8408 21.6547 20.2689C21.8333 20.0651 22.0521 19.9005 22.2973 19.7854C22.5425 19.6703 22.8089 19.6071 23.0797 19.5998C23.4337 19.5998 23.7907 19.5998 24.1027 19.6178C24.4327 19.6328 24.8707 19.4918 25.3027 20.5359C25.7527 21.6039 26.8207 24.2351 26.9527 24.5021C27.0374 24.6421 27.0859 24.801 27.0938 24.9644C27.1016 25.1278 27.0686 25.2907 26.9977 25.4381C26.8631 25.7591 26.6833 26.0591 26.4637 26.3292C26.1937 26.6412 25.9027 27.0252 25.6627 27.2652C25.3927 27.5322 25.1167 27.8202 25.4257 28.3543C26.2283 29.7285 27.2302 30.9761 28.3987 32.0565C29.6666 33.1838 31.1214 34.0812 32.6977 34.7086C33.2317 34.9786 33.5437 34.9306 33.8557 34.5736C34.1677 34.2166 35.1907 33.0135 35.5477 32.4795C35.9047 31.9455 36.2587 32.0355 36.7477 32.2125C37.2367 32.3895 39.8677 33.6825 40.4017 33.9526C40.9357 34.2226 41.2927 34.3516 41.4247 34.5736C41.571 35.4329 41.4626 36.3163 41.1127 37.1147Z" fill="#058789"/>
</svg>
